<?xml version="1.0" encoding="iso-8859-1"?>
<!-- Generator: Adobe Illustrator 19.0.0, SVG Export Plug-In . SVG Version: 6.00 Build 0)  -->
<svg version="1.1" id="Capa_1" xmlns="http://www.w3.org/2000/svg" xmlns:xlink="http://www.w3.org/1999/xlink" x="0px" y="0px"
	 viewBox="0 0 512 512" style="enable-background:new 0 0 512 512;" xml:space="preserve">
<path style="fill:#DEF1FF;" d="M504.5,82.5v347c0,20.71-8.39,39.46-21.97,53.03c-13.57,13.58-32.32,21.97-53.03,21.97H255L165,256
	L255,7.5h174.5c20.71,0,39.46,8.39,53.03,21.97C496.11,43.04,504.5,61.79,504.5,82.5z"/>
<path style="fill:#FFFFFF;" d="M255,7.5v497H82.5c-20.71,0-39.46-8.39-53.03-21.97C15.89,468.96,7.5,450.21,7.5,429.5v-347
	c0-20.71,8.39-39.46,21.97-53.03C43.04,15.89,61.79,7.5,82.5,7.5H255z"/>
<path style="fill:#024889;" d="M461.32,50.68c-8.5-8.5-19.8-13.18-31.82-13.18h-30v437h30c12.02,0,23.32-4.68,31.82-13.18
	s13.18-19.8,13.18-31.82v-347C474.5,70.48,469.82,59.18,461.32,50.68z"/>
<path style="fill:#024889;" d="M444.5,82.5v347c0,12.02-4.68,23.32-13.18,31.82s-19.8,13.18-31.82,13.18h-317
	c-12.02,0-23.32-4.68-31.82-13.18S37.5,441.52,37.5,429.5v-347c0-12.02,4.68-23.32,13.18-31.82S70.48,37.5,82.5,37.5h317
	c12.02,0,23.32,4.68,31.82,13.18S444.5,70.48,444.5,82.5z"/>
<path style="fill:#fff;" d="M291,97.5c57.99,0,105,47.01,105,105s-47.01,105-105,105c41.42,0,55-47.01,55-105
	S332.42,97.5,291,97.5z"/>
<path style="fill:#FFFFFF;" d="M291,97.5c41.42,0,75,47.01,75,105s-33.58,105-75,105h-87v107h-60v-317H291z M336,202.5
	c0-24.81-20.19-45-45-45h-87v90h87C315.81,247.5,336,227.31,336,202.5z"/>
<path d="M487.837,24.164C472.254,8.582,451.537,0,429.5,0h-347C60.463,0,39.743,8.582,24.164,24.164C8.581,39.745,0,60.463,0,82.5
	v347c0,22.037,8.581,42.754,24.163,58.336C39.746,503.418,60.463,512,82.5,512h347c22.037,0,42.757-8.582,58.336-24.164
	C503.419,472.255,512,451.537,512,429.5v-347C512,60.463,503.419,39.746,487.837,24.164z M497,429.5
	c0,18.031-7.021,34.982-19.771,47.73C464.481,489.979,447.531,497,429.5,497h-347c-18.03,0-34.98-7.021-47.729-19.77
	S15,447.53,15,429.5v-347c0-18.031,7.021-34.982,19.771-47.73C47.519,22.021,64.469,15,82.5,15h347
	c18.03,0,34.98,7.021,47.729,19.77S497,64.47,497,82.5V429.5z"/>
<path d="M429.5,29.999h-347c-14.023,0-27.208,5.462-37.124,15.379C35.46,55.292,29.999,68.476,29.999,82.5v158.854
	c0,4.142,3.357,7.5,7.5,7.5s7.5-3.358,7.5-7.5V82.5c0-10.017,3.9-19.433,10.983-26.515C63.065,48.901,72.483,45,82.5,45h347
	c10.017,0,19.434,3.901,26.516,10.984c7.083,7.083,10.984,16.5,10.985,26.517v347c0,10.017-3.9,19.433-10.983,26.515
	c-7.083,7.084-16.501,10.985-26.518,10.985h-347c-10.017,0-19.434-3.901-26.516-10.984c-7.083-7.083-10.984-16.5-10.985-26.517
	V271.353c0-4.142-3.357-7.5-7.5-7.5s-7.5,3.358-7.5,7.5V429.5c0.001,14.023,5.463,27.207,15.378,37.122
	C55.292,476.539,68.476,482,82.5,482.001h347c14.023,0,27.208-5.462,37.124-15.379c9.916-9.915,15.377-23.098,15.377-37.122V82.499
	c-0.001-14.023-5.463-27.207-15.378-37.122C456.708,35.461,443.524,30,429.5,29.999z"/>
<path d="M204,422c4.143,0,7.5-3.358,7.5-7.5V315H291c62.032,0,112.5-50.467,112.5-112.5S353.032,90,291,90H144
	c-4.143,0-7.5,3.358-7.5,7.5v317c0,4.142,3.357,7.5,7.5,7.5H204z M151.5,105H291c53.762,0,97.5,43.738,97.5,97.5
	S344.762,300,291,300h-87c-4.143,0-7.5,3.358-7.5,7.5V407h-45V105z"/>
<path d="M204,255h87c28.948,0,52.5-23.552,52.5-52.5S319.948,150,291,150h-87c-4.143,0-7.5,3.358-7.5,7.5v90
	C196.5,251.642,199.857,255,204,255z M211.5,165H291c20.678,0,37.5,16.823,37.5,37.5S311.678,240,291,240h-79.5V165z"/>
<g>
</g>
<g>
</g>
<g>
</g>
<g>
</g>
<g>
</g>
<g>
</g>
<g>
</g>
<g>
</g>
<g>
</g>
<g>
</g>
<g>
</g>
<g>
</g>
<g>
</g>
<g>
</g>
<g>
</g>
</svg>
